<svg xmlns="http://www.w3.org/2000/svg" viewBox="0 0 64 64">
  <rect width="64" height="64" rx="12" fill="#0a0f1e"/>
  <circle cx="32" cy="32" r="26" fill="none" stroke="#4B8FFF" stroke-width="3.5"/>
  <circle cx="32" cy="32" r="18" fill="none" stroke="#4B8FFF" stroke-width="1.8"/>
  <circle cx="32" cy="32" r="5" fill="#4B8FFF"/>
  <g stroke="#4B8FFF" stroke-width="1.2" stroke-linecap="round">
    <line x1="32" y1="32" x2="32" y2="6" transform="rotate(0   32 32)"/>
    <line x1="32" y1="32" x2="32" y2="6" transform="rotate(15  32 32)"/>
    <line x1="32" y1="32" x2="32" y2="6" transform="rotate(30  32 32)"/>
    <line x1="32" y1="32" x2="32" y2="6" transform="rotate(45  32 32)"/>
    <line x1="32" y1="32" x2="32" y2="6" transform="rotate(60  32 32)"/>
    <line x1="32" y1="32" x2="32" y2="6" transform="rotate(75  32 32)"/>
    <line x1="32" y1="32" x2="32" y2="6" transform="rotate(90  32 32)"/>
    <line x1="32" y1="32" x2="32" y2="6" transform="rotate(105 32 32)"/>
    <line x1="32" y1="32" x2="32" y2="6" transform="rotate(120 32 32)"/>
    <line x1="32" y1="32" x2="32" y2="6" transform="rotate(135 32 32)"/>
    <line x1="32" y1="32" x2="32" y2="6" transform="rotate(150 32 32)"/>
    <line x1="32" y1="32" x2="32" y2="6" transform="rotate(165 32 32)"/>
    <line x1="32" y1="32" x2="32" y2="6" transform="rotate(180 32 32)"/>
    <line x1="32" y1="32" x2="32" y2="6" transform="rotate(195 32 32)"/>
    <line x1="32" y1="32" x2="32" y2="6" transform="rotate(210 32 32)"/>
    <line x1="32" y1="32" x2="32" y2="6" transform="rotate(225 32 32)"/>
    <line x1="32" y1="32" x2="32" y2="6" transform="rotate(240 32 32)"/>
    <line x1="32" y1="32" x2="32" y2="6" transform="rotate(255 32 32)"/>
    <line x1="32" y1="32" x2="32" y2="6" transform="rotate(270 32 32)"/>
    <line x1="32" y1="32" x2="32" y2="6" transform="rotate(285 32 32)"/>
    <line x1="32" y1="32" x2="32" y2="6" transform="rotate(300 32 32)"/>
    <line x1="32" y1="32" x2="32" y2="6" transform="rotate(315 32 32)"/>
    <line x1="32" y1="32" x2="32" y2="6" transform="rotate(330 32 32)"/>
    <line x1="32" y1="32" x2="32" y2="6" transform="rotate(345 32 32)"/>
  </g>
  <g fill="#4B8FFF">
    <circle cx="32" cy="12" r="2" transform="rotate(0   32 32)"/>
    <circle cx="32" cy="12" r="2" transform="rotate(15  32 32)"/>
    <circle cx="32" cy="12" r="2" transform="rotate(30  32 32)"/>
    <circle cx="32" cy="12" r="2" transform="rotate(45  32 32)"/>
    <circle cx="32" cy="12" r="2" transform="rotate(60  32 32)"/>
    <circle cx="32" cy="12" r="2" transform="rotate(75  32 32)"/>
    <circle cx="32" cy="12" r="2" transform="rotate(90  32 32)"/>
    <circle cx="32" cy="12" r="2" transform="rotate(105 32 32)"/>
    <circle cx="32" cy="12" r="2" transform="rotate(120 32 32)"/>
    <circle cx="32" cy="12" r="2" transform="rotate(135 32 32)"/>
    <circle cx="32" cy="12" r="2" transform="rotate(150 32 32)"/>
    <circle cx="32" cy="12" r="2" transform="rotate(165 32 32)"/>
    <circle cx="32" cy="12" r="2" transform="rotate(180 32 32)"/>
    <circle cx="32" cy="12" r="2" transform="rotate(195 32 32)"/>
    <circle cx="32" cy="12" r="2" transform="rotate(210 32 32)"/>
    <circle cx="32" cy="12" r="2" transform="rotate(225 32 32)"/>
    <circle cx="32" cy="12" r="2" transform="rotate(240 32 32)"/>
    <circle cx="32" cy="12" r="2" transform="rotate(255 32 32)"/>
    <circle cx="32" cy="12" r="2" transform="rotate(270 32 32)"/>
    <circle cx="32" cy="12" r="2" transform="rotate(285 32 32)"/>
    <circle cx="32" cy="12" r="2" transform="rotate(300 32 32)"/>
    <circle cx="32" cy="12" r="2" transform="rotate(315 32 32)"/>
    <circle cx="32" cy="12" r="2" transform="rotate(330 32 32)"/>
    <circle cx="32" cy="12" r="2" transform="rotate(345 32 32)"/>
  </g>
</svg>
